PathFileType	4	(X/Y/Z)	Patient4_TMGait_0pt3_02_right_05.trc.trc
DataRate	CameraRate	NumFrames	NumMarkers	Units	OrigDataRate	OrigDataStartFrame	OrigNumFrames
47.619047619048	47.619047619048	4	33	mm	47.619047619048	106	       141
Frame#	Time	Sacral			L.Shoulder			Chest			R.Shoulder			Neck			R.ASIS			L.ASIS			R.Thigh.Superior			R.Thigh.Lateral			R.Thigh.Inferior			R.Patella			L.Thigh.Superior			L.Thigh.Lateral			L.Thigh.Inferior			L.Patella			L.Shank.Superior			L.Shank.Lateral			L.Shank.Inferior			R.Shank.Superior			R.Shank.Lateral			R.Shank.Inferior			R.Heel			R.Midfoot.Superior			R.Midfoot.Lateral			R.Toe			L.Heel			L.Midfoot.Lateral			L.Midfoot.Superior			L.Toe			L.Elbow			L.Wrist			R.Elbow			R.Wrist			
		X1	Y1	Z1	X2	Y2	Z2	X3	Y3	Z3	X4	Y4	Z4	X5	Y5	Z5	X6	Y6	Z6	X7	Y7	Z7	X8	Y8	Z8	X9	Y9	Z9	X10	Y10	Z10	X11	Y11	Z11	X12	Y12	Z12	X13	Y13	Z13	X14	Y14	Z14	X15	Y15	Z15	X16	Y16	Z16	X17	Y17	Z17	X18	Y18	Z18	X19	Y19	Z19	X20	Y20	Z20	X21	Y21	Z21	X22	Y22	Z22	X23	Y23	Z23	X24	Y24	Z24	X25	Y25	Z25	X26	Y26	Z26	X27	Y27	Z27	X28	Y28	Z28	X29	Y29	Z29	X30	Y30	Z30	X31	Y31	Z31	X32	Y32	Z32	X33	Y33	Z33	

106	10.495000000000	712.189410519641	986.825572872226	426.417523381347	924.324231625969	1411.326796925071	248.871600281225	1007.640268250327	1342.092711569463	420.024983625809	910.329048993213	1419.830859830632	584.602044853271	893.386411962965	1475.539187706427	405.311379795575	934.714939771908	925.684570009660	558.674370625834	939.688721740650	939.346244335967	284.775929807117	1006.516088864394	743.624827157322	540.424622392083	950.668717739165	627.888625641188	613.074719899582	1040.854345221891	578.409605537196	539.475199639196	1045.246356706283	464.196693906638	568.510947252500	1000.131631876657	738.162787310954	334.240643637888	930.041137428451	608.614267962368	282.659763672893	1016.571968215374	544.204508287265	360.772836818824	1021.717050026331	468.117721418443	373.801825550491	978.136569307469	393.865565927297	369.211852621135	873.319087072800	294.031641216859	315.962679801186	893.027379661373	180.676423967275	395.041103704896	958.563255138847	399.650691446311	574.447398779432	827.371043641705	380.253999105108	625.598643950792	803.681188646394	270.066929597703	583.052235684757	597.235918649667	229.494314878232	539.078608006236	755.370709672694	157.638918592448	602.442733629558	642.161083402562	168.963265532814	621.834128047235	805.877305122748	40.948431274009	640.941697604519	739.277535945242	39.939040969607	432.170002510714	816.558564699974	36.634721002737	355.183724982455	900.163726010791	94.640412092833	386.581930134466	1028.551763170770	39.491811451653	361.131582887015	967.632244994200	1065.426845773057	120.689882332180	1086.979419037902	833.988001832320	142.931434481260	863.249201964697	1072.971541287762	704.604486488405	945.078667689210	828.806083086825	742.597852609081	
107	10.516000000000	710.318753975356	987.096745061530	424.176351623053	924.636115749060	1412.513457079561	249.644216674764	1005.417115920517	1343.176505962834	421.854904465496	905.371770790460	1420.103187633308	585.215978010401	891.265114882092	1476.222246767881	405.923125330467	932.112839119746	926.680072157327	558.270723604450	939.220747153755	940.172842742183	284.305189221591	1007.853768237910	748.072560992007	538.521734185745	955.896407192916	631.043385700458	611.673931364718	1046.717997147740	583.738190190362	537.349961092243	1054.364965319880	469.490821185590	566.538794223593	997.705712258846	737.435167968015	333.489354269216	926.287005646903	608.536197070574	282.034032675395	1011.828765981763	543.385177566066	360.453621203186	1016.321081439139	467.562762573665	373.792882218647	972.545926138722	393.543402969291	369.065299426265	867.669953993987	293.864677450629	315.683356346852	886.929982377755	180.569631139797	394.980764008986	968.871550385738	403.183121362956	572.969882299077	837.966103145010	381.203964799583	623.785122733156	816.751188650019	270.433848586102	581.631352405513	611.493340650667	224.807614147991	537.285920861287	771.054420689950	157.537666120056	601.356466420831	657.699980553267	166.087325027199	620.559915405997	824.240435947616	42.069253681163	640.799048989349	732.879920445386	39.968457873705	432.074628017454	810.206908950281	36.610494484428	355.127987790063	893.820364653695	94.596280392290	386.530307131173	1022.194579319964	39.473421426599	361.095874332728	978.369562609524	1068.800716390988	120.195060040578	1111.269099524562	845.031177616893	143.661315747181	840.238257484597	1075.122290584775	700.650465183389	903.059885292785	824.923316244087	736.482351464628	
108	10.537000000000	708.498021024563	988.143390073142	422.130495397815	925.083711172963	1414.371158911718	250.790962112983	1003.231235844085	1344.857141069344	424.023952583426	900.464646188381	1421.073681941318	586.045379272687	889.169817496963	1477.524962624060	406.833063626567	929.411698020674	928.255050140684	558.171751683256	938.777193128800	941.583713553949	284.182156793113	1008.319057436708	752.733414534876	536.981704568971	959.772448735708	634.629095745345	610.566949142055	1050.961891104759	589.237680635694	535.535093690073	1061.796621558166	475.363505202739	564.853150697050	994.762293311210	736.997280491860	332.947059463496	921.640305875743	608.966912292774	281.462325029929	1006.006126819220	542.847440073156	360.068040838660	1009.705097726598	467.391900502084	373.652677698468	965.946671053413	393.679789164945	368.757607132579	861.249776292943	293.894378945993	315.311803498707	880.473751274287	180.700329494233	394.835168900719	978.182992817127	406.977297065454	571.884309378635	848.163805365164	381.046193343644	622.626945380971	830.631026522537	269.582986993344	580.870096459313	627.354593257745	216.555116968152	536.579602405394	788.905172856318	155.826469299979	600.895540613499	675.603586687913	160.278973056998	620.208018920553	846.094376740191	42.805690477305	641.075097036255	726.465444245926	39.991847004255	431.974745844679	803.839305938084	36.583804899438	355.073391598514	887.458942971373	94.580697943545	386.438800916558	1015.824989329407	39.468171414131	361.068123866008	988.470752601639	1073.291896671260	119.866092492299	1135.009299157214	858.300941944221	144.864513708176	817.973190754769	1078.952613208502	696.691220994936	862.638161212266	824.316142687434	729.981424382499	
109	10.558000000000	706.733946413170	989.863985314792	420.237697173161	925.691358352961	1416.793855023820	252.296616085945	1001.094979428281	1347.024128932217	426.516046845971	895.624729066972	1422.644266842801	587.074192576134	887.124260627701	1479.351810829114	408.020833119276	926.595019874272	930.320219988129	558.364523271698	938.364798877479	943.478965662452	284.398678713980	1007.912060797077	757.416089803347	535.878917899513	962.196814505666	638.445048902130	609.812756990946	1053.536964075464	594.663682154945	534.143536396016	1067.431032764303	481.591381976577	563.566110855337	991.339710068436	736.798089534851	332.611370971841	916.185140235222	609.850412867862	280.924011933887	999.185361090191	542.560363168215	359.607510179179	1001.955969123702	467.566060502113	373.365265796842	958.422560475573	394.230355976432	368.277636522658	854.115493019201	294.094045702395	314.841605371094	873.683257736798	181.041137335143	394.606538019278	986.394698167687	410.887822931741	571.262307964729	857.961120550281	379.753974186885	622.217093510651	845.251001032764	267.606616852137	580.837519983783	644.924220190369	205.089396944001	537.013782665915	808.786663898233	152.688901981172	601.106081123649	695.848618533635	151.874060831291	620.830466408582	871.122135594347	43.278254595203	641.829614925814	720.039984914038	40.001713398545	431.873728594138	797.456557243523	36.552219320813	355.019772445126	881.080920461201	94.589776722488	386.312606683713	1009.444969234938	39.476263038817	361.049103369774	997.996838831100	1078.740628657479	119.686761719050	1157.954743748861	873.567641710131	146.495480007652	796.703631783253	1084.228376262196	692.829608796171	824.411096691889	826.584229257548	723.409625448986	
